<svg xmlns="http://www.w3.org/2000/svg" style="display: none;"><symbol id="planning" viewBox="0 0 512 512"><title>planning</title><g clip-rule="evenodd" fill-rule="evenodd"><path d="m7.512 156.773h480.507c8.391 1.474 14.996 8.107 16.498 16.497v261.043c-1.502 8.391-8.107 14.995-16.498 16.497h-432.743c-26.391 0-47.765-21.401-47.765-47.792v-246.245z" fill="#ecf4ff"/><path d="m55.276 61.218c-26.391 0-47.765 21.373-47.765 47.764v294.037c0-26.39 21.374-47.764 47.765-47.764 8.73 0 16.781 2.013 23.698 6.265 2.353 1.445 5.102-.142 5.102-3.118 0-93.94 0-231.987 0-281.452 0-2.891-1.502-7.483-5.811-9.864-6.831-3.772-14.626-5.868-22.989-5.868z" fill="#cbe2ff"/><path d="m131.274 195.041h71.377c3.997 0 7.285 3.288 7.285 7.285v71.348c0 4.025-3.288 7.285-7.285 7.285h-71.377c-3.997 0-7.257-3.26-7.257-7.285v-71.348c0-3.997 3.26-7.285 7.257-7.285z" fill="#cbe2ff"/><path d="m464.463 116.011-33.478-10.176-30.614 10.176v238.904l32.23 8.391 31.862-8.391z" fill="#ff6978"/><path d="m436.456 410.049 11.99-23.584 16.017-31.55h-32.032-32.06l16.016 31.55 11.991 23.584c1.785 3.543 6.292 3.543 8.078 0z" fill="#ffcbbe"/><path d="m464.463 116.011v-35.206c0-10.771-8.816-19.587-19.588-19.587h-24.888c-10.801 0-19.616 8.815-19.616 19.587v35.206z" fill="#ff8793"/><path d="m127.986 418.014h48.87l8.022-26.531-8.022-20.637h-48.87c-6.236 1.105-11.169 6.038-12.274 12.303v22.592c1.105 6.236 6.037 11.167 12.274 12.273z" fill="#f2ce7e"/><path d="m176.856 418.014h61.172l8.363-30.16-8.363-46.403v-8.532c-1.105-6.265-6.038-11.196-12.302-12.303h-36.567c-6.265 1.107-11.197 6.038-12.302 12.303v85.095z" fill="#b3e59f"/><path d="m238.028 418.014h61.144l6.18-20.324-6.18-26.844v-17.121c-1.105-6.236-6.038-11.169-12.302-12.274h-48.842z" fill="#f2ce7e"/><path d="m299.172 418.014h48.871c6.236-1.105 11.168-6.037 12.274-12.273v-22.592c-1.105-6.265-6.038-11.197-12.274-12.303h-48.871z" fill="#b3e59f"/><path d="m463.754 426.547h-432.743c-6.917 0-13.465-1.475-19.389-4.11 7.427 16.724 24.18 28.374 43.654 28.374h432.742c8.391-1.502 14.996-8.106 16.498-16.497v-261.044c-1.502-8.39-8.107-15.023-16.498-16.497h-7.767v253.275c-1.501 8.392-8.106 14.996-16.497 16.499z" fill="#cbe2ff"/><path d="m59.811 156.773v198.652c6.974.595 13.437 2.579 19.163 6.094 2.353 1.445 5.102-.142 5.102-3.118v-201.628-79.824c0-2.891-1.502-7.483-5.811-9.864-6.831-3.771-14.626-5.867-22.989-5.867-4.167 0-8.25.538-12.104 1.53 3.798 1.021 7.427 2.466 10.829 4.337 4.309 2.381 5.811 6.974 5.811 9.864v79.824z" fill="#bed8fb"/><path d="m440.198 116.011v40.762 198.142h24.265v-198.142-40.762z" fill="#eb616f"/><path d="m440.198 80.805v27.836 7.37h24.265v-35.206c0-10.771-8.816-19.587-19.588-19.587h-24.294c10.801 0 19.617 8.815 19.617 19.587z" fill="#f77b87"/></g><path d="m456.979 108.527v-27.722c0-3.316-1.389-6.35-3.572-8.532-2.211-2.211-5.216-3.571-8.532-3.571h-24.888c-3.346 0-6.35 1.36-8.561 3.571-2.183 2.183-3.544 5.216-3.544 8.532v27.723h49.097zm-313.516 134.787c-2.919-2.947-2.919-7.682 0-10.602 2.92-2.947 7.682-2.947 10.602 0l6.832 6.832 18.964-18.992c2.92-2.92 7.682-2.92 10.602 0 2.948 2.948 2.948 7.682 0 10.63l-24.264 24.265c-2.921 2.92-7.683 2.92-10.603 0zm281.456-86.541c0-4.139 3.345-7.512 7.512-7.512 4.139 0 7.483 3.373 7.483 7.512v157.408c0 4.138-3.345 7.512-7.483 7.512-4.167 0-7.512-3.374-7.512-7.512zm-118.235 253.758h46.149v-32.174h-46.149zm53.632 14.995c-81.525 0-163.08 0-244.605 0-4.139 0-7.512-3.374-7.512-7.513v-47.168c0-4.139 3.373-7.483 7.512-7.483h53.661v-42.747c0-4.138 3.345-7.482 7.483-7.482h61.172c4.139 0 7.484 3.345 7.484 7.482v13.323h53.66c4.139 0 7.512 3.373 7.512 7.512v21.912h53.632c4.139 0 7.512 3.345 7.512 7.483v47.168c.001 4.139-3.372 7.513-7.511 7.513zm-114.804-14.995h46.149v-61.569h-46.149zm-61.144 0h46.148v-69.081-13.322h-46.148zm-61.173 0h46.178v-32.174h-46.178zm-31.635-261.269h301.299v-33.251-35.206c0-7.455 3.061-14.229 7.965-19.134 4.904-4.904 11.679-7.966 19.163-7.966h24.888c7.455 0 14.23 3.062 19.134 7.966s7.965 11.679 7.965 19.134v35.206 33.251h32.542c4.139 0 7.483 3.373 7.483 7.512v294.036c0 4.139-3.345 7.484-7.483 7.484h-207.64c-4.139 0-7.483-3.346-7.483-7.484s3.345-7.512 7.483-7.512h200.128v-279.041h-25.03v54.227c0 4.139-3.374 7.512-7.512 7.512-4.139 0-7.484-3.373-7.484-7.512v-61.71-33.25h-49.097v33.25 190.658h49.097v-94.961c0-4.139 3.345-7.512 7.484-7.512 4.138 0 7.512 3.373 7.512 7.512v102.444c0 1.814-.482 2.722-1.276 4.252l-31.578 62.192c-.708 1.389-1.842 2.579-3.345 3.345-3.685 1.871-8.164.368-10.034-3.316l-31.692-62.362c-.737-1.502-1.19-2.352-1.19-4.11v-190.659h-301.299v56.749c0 4.139-3.345 7.513-7.484 7.513s-7.512-3.374-7.512-7.513v-64.232-82.007c-6.435-4.024-13.691-6.065-21.288-6.065-11.112 0-21.175 4.507-28.489 11.792-7.285 7.313-11.793 17.376-11.793 28.488v256.195c.397-.426.794-.851 1.19-1.247 10.007-10.007 23.84-16.186 39.091-16.186 6.095 0 11.991 1.021 17.575 2.863 1.248.425 2.495.907 3.713 1.417v-97.029c0-4.139 3.373-7.512 7.512-7.512s7.484 3.373 7.484 7.512v109.899c0 1.559-.51 3.146-1.531 4.508-2.466 3.288-7.172 3.939-10.488 1.445-3.43-2.607-7.314-4.677-11.452-6.038-3.968-1.332-8.277-2.069-12.812-2.069-11.112 0-21.175 4.508-28.489 11.793-7.285 7.284-11.793 17.376-11.793 28.487 0 11.141 4.507 21.203 11.793 28.488 7.313 7.285 17.376 11.792 28.489 11.792h207.64c4.139 0 7.483 3.374 7.483 7.512 0 4.139-3.345 7.484-7.483 7.484h-207.64c-15.251 0-29.084-6.18-39.091-16.186-10.006-10.007-16.185-23.812-16.185-39.091v-294.038c0-15.251 6.179-29.084 16.185-39.09 10.007-10.007 23.84-16.187 39.091-16.187 11.82 0 23.442 3.855 32.938 10.886 2.013 1.36 3.345 3.656 3.345 6.265v78.407zm360.713 213.165h-39.713l19.871 39.09zm-100.234-167.726c4.139 0 7.483 3.373 7.483 7.512s-3.345 7.483-7.483 7.483h-101.51c-4.139 0-7.483-3.345-7.483-7.483 0-4.139 3.345-7.512 7.483-7.512zm-42.208 71.603c4.167 0 7.512 3.345 7.512 7.483s-3.345 7.512-7.512 7.512h-59.301c-4.139 0-7.483-3.373-7.483-7.512s3.345-7.483 7.483-7.483zm42.208-35.802c4.139 0 7.483 3.346 7.483 7.512 0 4.139-3.345 7.484-7.483 7.484h-101.51c-4.139 0-7.483-3.346-7.483-7.484 0-4.166 3.345-7.512 7.483-7.512zm-228.022-42.973h85.919c4.139 0 7.483 3.373 7.483 7.512v85.918c0 4.139-3.345 7.512-7.483 7.512h-85.919c-4.167 0-7.512-3.373-7.512-7.512v-85.918c0-4.139 3.345-7.512 7.512-7.512zm78.408 15.024h-70.924v70.923h70.924z"/></symbol><symbol id="interview" viewBox="0 0 472 472"><title>interview</title><g> <circle style="fill:#6ACCEF;" cx="60" cy="136" r="56"/> <path style="fill:#6ACCEF;" d="M188,264h-72v-40c0-17.672-14.328-32-32-32H36c-17.672,0-32,14.328-32,32v112 c0,17.672,14.328,32,32,32h80v96h56V344c0-17.672-14.328-32-32-32h48V264z"/> </g><g> <circle style="fill:#E05346;" cx="412" cy="136" r="56"/> <path style="fill:#E05346;" d="M332,312c-17.672,0-32,14.328-32,32v120h56v-96h80c17.672,0,32-14.328,32-32V224 c0-17.672-14.328-32-32-32h-80h-32l-56-56l-32,32l72,72h72v72H332z"/> </g><g> <rect x="196" y="456" style="fill:#2D2E46;" width="80" height="16"/> <rect x="228" y="312" style="fill:#2D2E46;" width="16" height="152"/> <rect x="132" y="304" style="fill:#2D2E46;" width="208" height="16"/> <rect x="420" y="368" style="fill:#2D2E46;" width="16" height="104"/> <rect x="36" y="368" style="fill:#2D2E46;" width="16" height="104"/> </g><path style="fill:#E2DEDC;" d="M220,304h-72v-16h67.72l45.624-68.44l13.312,8.872l-48,72C225.168,302.664,222.672,304,220,304z"/><path style="fill:#FCBA5B;" d="M316,0H156c-8.84,0-16,7.16-16,16v64c0,8.84,7.16,16,16,16h16v56l56-56h88c8.84,0,16-7.16,16-16V16 C332,7.16,324.84,0,316,0z"/><g> <rect x="164" y="24" style="fill:#2D2E46;" width="48" height="16"/> <rect x="164" y="56" style="fill:#2D2E46;" width="144" height="16"/> <rect x="228" y="24" style="fill:#2D2E46;" width="80" height="16"/> </g></symbol><symbol id="content" viewBox="0 0 469.34 469.34"><title>content</title><path style="fill:#F0EAF9;" d="M42.667,0.003h383.996c23.564,0,42.667,19.103,42.667,42.667v341.336 c0,23.564-19.103,42.667-42.667,42.667H42.667C19.103,426.673,0,407.57,0,384.006V42.67C0,19.106,19.103,0.003,42.667,0.003z"/><path style="fill:#E1D5F3;" d="M21.333,85.34h426.664c11.782,0,21.333,9.551,21.333,21.333v0.001 c0,11.782-9.551,21.333-21.333,21.333H21.333C9.551,128.007,0,118.456,0,106.674v-0.001C0,94.891,9.551,85.34,21.333,85.34z"/><path style="fill:#5628B4;" d="M42.667,0.003h384c23.564,0,42.667,19.103,42.667,42.667c0,0,0,0,0,0v64l0,0H0l0,0v-64 C0,19.106,19.103,0.003,42.667,0.003L42.667,0.003L42.667,0.003z"/><path style="fill:#6F48BF;" d="M42.667,0.003h384.004c11.782,0,21.333,9.551,21.333,21.333v0.001 c0,11.782-9.551,21.333-21.333,21.333H42.667c-11.782,0-21.333-9.551-21.333-21.333v-0.001C21.334,9.554,30.885,0.003,42.667,0.003z "/><path style="fill:#421198;" d="M32.001,85.34h405.336c5.891,0,10.667,4.776,10.667,10.667v0c0,5.891-4.776,10.667-10.667,10.667 H32.001c-5.891,0-10.667-4.776-10.667-10.667v0C21.334,90.116,26.11,85.34,32.001,85.34z"/><path style="fill:#D9C9EF;" d="M458.667,149.337c-5.891,0-10.667,4.775-10.667,10.666c0,0,0,0,0,0.001v224 c0,11.782-9.551,21.333-21.333,21.333H309.334c-5.891,0-10.667,4.776-10.667,10.667c0,5.891,4.776,10.667,10.667,10.667h117.333 c23.564,0,42.666-19.103,42.667-42.667v-224C469.334,154.112,464.558,149.337,458.667,149.337 C458.667,149.337,458.667,149.337,458.667,149.337L458.667,149.337z"/><path style="fill:#DFD2F2;" d="M10.667,192L10.667,192c5.891,0,10.667,4.776,10.667,10.667v170.666 c0,5.891-4.776,10.667-10.667,10.667l0,0C4.776,384,0,379.224,0,373.333V202.667C0,196.776,4.776,192,10.667,192z"/><circle style="fill:#F7B236;" cx="53.337" cy="53.34" r="10.667"/><circle style="fill:#B39DDD;" cx="95.997" cy="53.34" r="10.667"/><circle style="fill:#D80E70;" cx="138.667" cy="53.34" r="10.667"/><g> <path style="fill:#B39DDD;" d="M405.334,298.67H192c-11.782,0-21.333-9.551-21.333-21.333V170.673 c0-11.782,9.551-21.333,21.333-21.333h213.334c11.782,0,21.333,9.551,21.333,21.333v106.664 C426.667,289.119,417.116,298.67,405.334,298.67z"/> <path style="fill:#B39DDD;" d="M106.664,234.67H64c-11.782,0-21.333-9.551-21.333-21.333v-42.664 c0-11.782,9.551-21.333,21.333-21.333h42.664c11.782,0,21.333,9.551,21.333,21.333v42.664 C127.997,225.119,118.446,234.67,106.664,234.67z"/> <path style="fill:#B39DDD;" d="M106.664,384H64c-11.782,0-21.333-9.551-21.333-21.333v-42.664c0-11.782,9.551-21.333,21.333-21.333 h42.664c11.782,0,21.333,9.551,21.333,21.333v42.664C127.997,374.449,118.446,384,106.664,384z"/> <path style="fill:#B39DDD;" d="M181.334,320h63.996c5.891,0,10.667,4.776,10.667,10.667l0,0c0,5.891-4.776,10.667-10.667,10.667 h-63.996c-5.891,0-10.667-4.776-10.667-10.667l0,0C170.667,324.776,175.443,320,181.334,320z"/> <path style="fill:#B39DDD;" d="M394.664,320h21.333c5.891,0,10.667,4.776,10.667,10.667l0,0c0,5.891-4.776,10.667-10.667,10.667 h-21.333c-5.891,0-10.667-4.776-10.667-10.667l0,0C383.997,324.776,388.773,320,394.664,320z"/> <path style="fill:#B39DDD;" d="M288.004,320H352c5.891,0,10.667,4.776,10.667,10.667l0,0c0,5.891-4.776,10.667-10.667,10.667 h-63.996c-5.891,0-10.667-4.776-10.667-10.667l0,0C277.337,324.776,282.113,320,288.004,320z"/> <path style="fill:#B39DDD;" d="M181.334,362.67h85.336c5.891,0,10.667,4.776,10.667,10.667l0,0c0,5.891-4.776,10.667-10.667,10.667 h-85.336c-5.891,0-10.667-4.776-10.667-10.667l0,0C170.667,367.446,175.443,362.67,181.334,362.67z"/> <path style="fill:#B39DDD;" d="M309.334,362.67h21.333c5.891,0,10.667,4.776,10.667,10.667l0,0c0,5.891-4.776,10.667-10.667,10.667 h-21.333c-5.891,0-10.667-4.776-10.667-10.667l0,0C298.667,367.446,303.443,362.67,309.334,362.67z"/> <path style="fill:#B39DDD;" d="M117.33,277.34H53.334c-5.891,0-10.667-4.776-10.667-10.667l0,0c0-5.891,4.776-10.667,10.667-10.667 h63.996c5.891,0,10.667,4.776,10.667,10.667l0,0C127.997,272.564,123.221,277.34,117.33,277.34z"/> </g><path style="fill:#F7B236;" d="M234.667,320.003h-21.331c-58.91,0-106.667,47.756-106.667,106.667c0,0.001,0,0.001,0,0.002v0.565 c0.076,11.653-10.209,20.767-21.862,20.767h-10.14c-5.891,0-10.667,4.776-10.667,10.667c0,5.891,4.776,10.667,10.667,10.667l0,0 h74.667C208.244,469.337,256,421.58,256,362.67v-42.667H234.667z"/><path style="fill:#F58B04;" d="M256,362.67v-42.667h-21.333c0,58.91-47.756,106.667-106.667,106.667H106.67v0.566 c0.076,11.652-10.21,20.767-21.862,20.767H74.667c-5.891,0-10.667,4.776-10.667,10.667c0,5.891,4.776,10.667,10.667,10.667h74.667 C208.244,469.336,256,421.58,256,362.67L256,362.67z"/><path style="fill:#D80E70;" d="M462.184,113.82c-6.537-6.537-16.207-8.82-24.977-5.896h0 c-75.189,26.567-137.135,81.272-172.798,152.597L256,277.337v42.667h42.667l16.816-8.408 c71.325-35.663,126.03-97.61,152.597-172.798v0C471.004,130.026,468.721,120.357,462.184,113.82L462.184,113.82z"/><ellipse transform="matrix(-0.7071 -0.7071 0.7071 -0.7071 431.8294 605.5635)" style="fill:#E976AF;" cx="341.331" cy="213.347" rx="21.333" ry="56.757"/><path style="fill:#A60068;" d="M437.206,107.923c-3.693,1.305-7.198,2.986-10.826,4.424C423.602,207.998,351.052,287.119,256,298.16 v21.844h42.667l16.816-8.409c71.325-35.663,126.03-97.61,152.598-172.798c4.262-12.789-2.651-26.612-15.44-30.874 C447.631,106.253,442.216,106.253,437.206,107.923L437.206,107.923z"/><path style="fill:#5628B4;" d="M234.667,320.003L256,341.337l42.667-21.334L256,277.337L234.667,320.003z"/><path style="fill:#420F9B;" d="M246.199,331.535l9.801,9.801l42.667-21.333l-20.468-20.468c-8.837-8.837-23.163-8.837-32,0 c-1.72,1.72-3.151,3.705-4.239,5.881v0C237.605,314.128,239.312,324.649,246.199,331.535L246.199,331.535z"/><ellipse transform="matrix(-0.7071 -0.7071 0.7071 -0.7071 10.0251 751.4755)" style="fill:#FBDA9E;" cx="160.648" cy="373.661" rx="16.617" ry="42.44"/></symbol><symbol id="programming" viewBox="0 0 512 512"><title>programming</title><polygon style="fill:#9ABADB;" points="332.663,473.644 332.663,413.596 235.984,393.58 256,473.644 "/><g> <polygon style="fill:#D1E8FF;" points="179.337,473.644 256,473.644 256,393.58 179.337,413.596 "/> <polygon style="fill:#D1E8FF;" points="512,323.524 235.984,303.508 256,413.596 512,413.596 "/> </g><polygon style="fill:#F5F5FF;" points="0,323.524 0,413.596 256,413.596 256,303.508 "/><polygon style="fill:#D1E8FF;" points="377.699,458.644 256,458.644 245.992,473.644 256,488.644 377.699,488.644 "/><rect x="134.3" y="458.64" style="fill:#F5F5FF;" width="121.7" height="30"/><polygon style="fill:#294B6E;" points="512,23.356 256,23.356 235.984,173.44 256,323.524 512,323.524 "/><rect y="23.356" style="fill:#6283A3;" width="256" height="300.17"/><polygon style="fill:#F5F5FF;" points="178.828,252.914 99.354,173.44 178.828,93.966 200.041,115.179 141.78,173.44 200.041,231.701 "/><g> <polygon style="fill:#D1E8FF;" points="333.172,252.914 311.959,231.701 370.22,173.44 311.959,115.179 333.172,93.966 412.646,173.44 "/> <rect x="241" y="78.635" transform="matrix(-0.9808 -0.1951 0.1951 -0.9808 473.2431 393.505)" style="fill:#D1E8FF;" width="30" height="189.623"/> </g></symbol><symbol id="responsive" viewBox="0 0 512 512"><title>responsive</title><circle style="fill:#69CDFF;" cx="267" cy="256" r="245"/><rect x="185.72" y="358.53" style="fill:#445EA0;" width="78.71" height="41.23"/><rect x="185.72" y="358.53" style="fill:#2E4C89;" width="19.842" height="41.23"/><path style="fill:#293D7C;" d="M316.856,398.763H127.56c-2.806,0-5.101,2.296-5.101,5.102v25.571c0,2.806,2.296,5.102,5.101,5.102 h189.296L316.856,398.763L316.856,398.763z"/><path style="fill:#1A2B63;" d="M142.301,429.435v-25.571c0-2.806,2.296-5.102,5.102-5.102H127.56c-2.806,0-5.101,2.296-5.101,5.102 v25.571c0,2.806,2.296,5.102,5.101,5.102h19.842C144.597,434.537,142.301,432.241,142.301,429.435z"/><path style="fill:#293D7C;" d="M445.054,58.964H5.102C2.296,58.964,0,61.26,0,64.066V354.43c0,2.807,2.296,5.102,5.102,5.102 h311.754V206.768c0-3.859,3.14-7,7-7h126.3V64.066C450.156,61.26,447.86,58.964,445.054,58.964z"/><path style="fill:#FFFFFF;" d="M22.396,308.514c0,1.684,1.377,3.06,3.061,3.06h291.399V206.768c0-3.859,3.14-7,7-7H427.76v-90.77 H22.396V308.514z"/><path style="fill:#D9EAFC;" d="M42.239,308.514V108.998H22.396v199.516c0,1.684,1.377,3.06,3.061,3.06H45.3 C43.616,311.574,42.239,310.197,42.239,308.514z"/><circle style="fill:#445EA0;" cx="225.08" cy="335.46" r="13.774"/><path style="fill:#C3DDF4;" d="M316.856,223.146h-53.424c-1.65,0-3,1.35-3,3v59.639c0,1.65,1.35,3,3,3h53.424V223.146z"/><path style="fill:#AEC1ED;" d="M280.274,285.785v-59.639c0-1.65,1.35-3,3-3h-19.842c-1.65,0-3,1.35-3,3v59.639c0,1.65,1.35,3,3,3 h19.842C281.624,288.785,280.274,287.435,280.274,285.785z"/><path style="fill:#C3DDF4;" d="M323.856,199.768h46.618v-65.382c0-2.75-2.25-5-5-5H84.682c-2.75,0-5,2.25-5,5v66.525 c0,2.75,2.25,5,5,5h232.233C317.339,202.455,320.288,199.768,323.856,199.768z"/><path style="fill:#AEC1ED;" d="M99.524,200.91v-66.525c0-2.75,2.25-5,5-5H84.682c-2.75,0-5,2.25-5,5v66.525c0,2.75,2.25,5,5,5 h19.842C101.774,205.91,99.524,203.66,99.524,200.91z"/><path style="fill:#FFAF10;" d="M424.699,84.983H25.457c-1.684,0-3.061,1.377-3.061,3.062v21.953H427.76V88.045 C427.76,86.36,426.382,84.983,424.699,84.983z"/><path style="fill:#FF9518;" d="M45.3,84.983H25.457c-1.684,0-3.061,1.377-3.061,3.062v21.953h19.842V88.045 C42.239,86.36,43.616,84.983,45.3,84.983z"/><g> <path style="fill:#5DC1D8;" d="M171.504,238.979h-84.17c-4.142,0-7.5-3.357-7.5-7.5s3.358-7.5,7.5-7.5h84.17 c4.142,0,7.5,3.357,7.5,7.5S175.646,238.979,171.504,238.979z"/> <path style="fill:#5DC1D8;" d="M171.504,263.466h-84.17c-4.142,0-7.5-3.357-7.5-7.5s3.358-7.5,7.5-7.5h84.17 c4.142,0,7.5,3.357,7.5,7.5C179.004,260.108,175.646,263.466,171.504,263.466z"/> <path style="fill:#5DC1D8;" d="M171.504,287.953h-84.17c-4.142,0-7.5-3.357-7.5-7.5s3.358-7.5,7.5-7.5h84.17 c4.142,0,7.5,3.357,7.5,7.5S175.646,287.953,171.504,287.953z"/> <path style="fill:#5DC1D8;" d="M237.56,238.979h-43.326c-4.142,0-7.5-3.357-7.5-7.5s3.358-7.5,7.5-7.5h43.326 c4.142,0,7.5,3.357,7.5,7.5S241.702,238.979,237.56,238.979z"/> <path style="fill:#5DC1D8;" d="M237.56,263.466h-43.326c-4.142,0-7.5-3.357-7.5-7.5s3.358-7.5,7.5-7.5h43.326 c4.142,0,7.5,3.357,7.5,7.5C245.06,260.108,241.702,263.466,237.56,263.466z"/> <path style="fill:#5DC1D8;" d="M237.56,287.953h-43.326c-4.142,0-7.5-3.357-7.5-7.5s3.358-7.5,7.5-7.5h43.326 c4.142,0,7.5,3.357,7.5,7.5S241.702,287.953,237.56,287.953z"/> </g><path style="fill:#445EA0;" d="M504,198.768c4.4,0,8,3.6,8,8v241.77c0,4.4-3.6,8-8,8H323.856c-4.4,0-8-3.6-8-8v-241.77 c0-4.4,3.6-8,8-8L504,198.768L504,198.768z"/><path style="fill:#FFFFFF;" d="M337.567,425.125c-2.75,0-5-2.25-5-5V219.18c0-2.75,2.25-5,5-5H490.29c2.75,0,5,2.25,5,5v200.945 c0,2.75-2.25,5-5,5H337.567z"/><path style="fill:#D9EAFC;" d="M352.409,420.125V219.18c0-2.75,2.25-5,5-5h-19.842c-2.75,0-5,2.25-5,5v200.945c0,2.75,2.25,5,5,5 h19.842C354.659,425.125,352.409,422.875,352.409,420.125z"/><path style="fill:#445EA0;" d="M404.567,445.125c-2.75,0-5-2.25-5-5v-1.945c0-2.75,2.25-5,5-5h18.723c2.75,0,5,2.25,5,5v1.945 c0,2.75-2.25,5-5,5H404.567z"/><path style="fill:#FFAF10;" d="M495.29,233.473V219.18c0-2.75-2.25-5-5-5H337.567c-2.75,0-5,2.25-5,5v14.293L495.29,233.473 L495.29,233.473z"/><path style="fill:#FF9518;" d="M357.409,214.18h-19.842c-2.75,0-5,2.25-5,5v14.293h19.842V219.18 C352.409,216.43,354.659,214.18,357.409,214.18z"/><g> <path style="fill:#5DC1D8;" d="M448.013,324.933h-68.169c-4.142,0-7.5-3.357-7.5-7.5s3.358-7.5,7.5-7.5h68.169 c4.142,0,7.5,3.357,7.5,7.5C455.513,321.575,452.155,324.933,448.013,324.933z"/> <path style="fill:#5DC1D8;" d="M448.013,348.06h-68.169c-4.142,0-7.5-3.357-7.5-7.5c0-4.142,3.358-7.5,7.5-7.5h68.169 c4.142,0,7.5,3.358,7.5,7.5C455.513,344.703,452.155,348.06,448.013,348.06z"/> <path style="fill:#5DC1D8;" d="M448.013,371.185h-68.169c-4.142,0-7.5-3.357-7.5-7.5c0-4.142,3.358-7.5,7.5-7.5h68.169 c4.142,0,7.5,3.358,7.5,7.5C455.513,367.828,452.155,371.185,448.013,371.185z"/> </g><path style="fill:#C3DDF4;" d="M479.756,292.257c0,2.75-2.25,5-5,5H353.101c-2.75,0-5-2.25-5-5v-41.244c0-2.75,2.25-5,5-5h121.655 c2.75,0,5,2.25,5,5V292.257z"/><path style="fill:#AEC1ED;" d="M367.943,292.257v-41.244c0-2.75,2.25-5,5-5h-19.842c-2.75,0-5,2.25-5,5v41.244c0,2.75,2.25,5,5,5 h19.842C370.193,297.257,367.943,295.007,367.943,292.257z"/><path style="fill:#C3DDF4;" d="M461.757,409.416c0,2.75-2.25,5-5,5H371.1c-2.75,0-5-2.25-5-5v-16.91c0-2.75,2.25-5,5-5h85.657 c2.75,0,5,2.25,5,5L461.757,409.416L461.757,409.416z"/><path style="fill:#AEC1ED;" d="M385.942,409.416v-16.91c0-2.75,2.25-5,5-5H371.1c-2.75,0-5,2.25-5,5v16.91c0,2.75,2.25,5,5,5h19.842 C388.192,414.416,385.942,412.166,385.942,409.416z"/></symbol><symbol id="completed-task" viewBox="0 0 512 512"><title>completed-task</title><path d="m32 16h352c17.671875 0 32 14.328125 32 32v432c0 17.671875-14.328125 32-32 32h-352c-17.671875 0-32-14.328125-32-32v-432c0-17.671875 14.328125-32 32-32zm0 0" fill="#ecce93"/><path d="m32 374.625v-326.625h352v432h-246.625zm0 0" fill="#efefef"/><path d="m137.375 374.625v105.375l-105.375-105.375zm0 0" fill="#e76e54"/><path d="m128 64v-64h160v64c0 17.671875-14.328125 32-32 32h-96c-17.671875 0-32-14.328125-32-32zm0 0" fill="#e76e54"/><path d="m512 368c0 79.527344-64.472656 144-144 144s-144-64.472656-144-144 64.472656-144 144-144 144 64.472656 144 144zm0 0" fill="#48c8ef"/><path d="m335.007812 429.648438-31.007812-31.023438c-6.246094-6.25-6.246094-16.378906 0-22.625s16.375-6.246094 22.625 0l10.367188 10.351562 72.464843-60.398437c6.789063-5.664063 16.886719-4.746094 22.542969 2.046875 5.664062 6.789062 4.746094 16.886719-2.046875 22.542969zm0 0" fill="#fff"/><g fill="#77959e"><path d="m176 128h128c8.835938 0 16 7.164062 16 16s-7.164062 16-16 16h-128c-8.835938 0-16-7.164062-16-16s7.164062-16 16-16zm0 0"/><path d="m96 128h32v32h-32zm0 0"/><path d="m96 192h32v32h-32zm0 0"/><path d="m96 256h32v32h-32zm0 0"/><path d="m96 320h32v32h-32zm0 0"/><path d="m176 192h96c8.835938 0 16 7.164062 16 16s-7.164062 16-16 16h-96c-8.835938 0-16-7.164062-16-16s7.164062-16 16-16zm0 0"/><path d="m176 256h32c8.835938 0 16 7.164062 16 16s-7.164062 16-16 16h-32c-8.835938 0-16-7.164062-16-16s7.164062-16 16-16zm0 0"/></g></symbol><symbol id="checklist" viewBox="0 0 512 512"><title>checklist</title><path d="m451 60h-90v-30h-62.57c-6.191-17.461-22.874-30-42.43-30s-36.239 12.539-42.43 30h-62.57v30h-90v452h390zm-270 0h60v-15c0-8.271 6.729-15 15-15s15 6.729 15 15v15h60v30h-150zm240 422h-330v-392h60v30h210v-30h60z"/><path d="m151 234.787-19.394-19.394-21.212 21.214 40.606 40.606 70.606-70.606-21.212-21.214z"/><path d="m151 324.787-19.394-19.394-21.212 21.214 40.606 40.606 70.606-70.606-21.212-21.214z"/><path d="m151 414.787-19.394-19.394-21.212 21.214 40.606 40.606 70.606-70.606-21.212-21.214z"/><path d="m241 211h150v30h-150z"/><path d="m241 301h150v30h-150z"/><path d="m241 391h150v30h-150z"/></symbol><symbol id="user" viewBox="-42 0 512 512.002"><title>user</title><path d="m210.351562 246.632812c33.882813 0 63.222657-12.152343 87.195313-36.128906 23.972656-23.972656 36.125-53.304687 36.125-87.191406 0-33.875-12.152344-63.210938-36.128906-87.191406-23.976563-23.96875-53.3125-36.121094-87.191407-36.121094-33.886718 0-63.21875 12.152344-87.191406 36.125s-36.128906 53.308594-36.128906 87.1875c0 33.886719 12.15625 63.222656 36.132812 87.195312 23.976563 23.96875 53.3125 36.125 87.1875 36.125zm0 0"/><path d="m426.128906 393.703125c-.691406-9.976563-2.089844-20.859375-4.148437-32.351563-2.078125-11.578124-4.753907-22.523437-7.957031-32.527343-3.308594-10.339844-7.808594-20.550781-13.371094-30.335938-5.773438-10.15625-12.554688-19-20.164063-26.277343-7.957031-7.613282-17.699219-13.734376-28.964843-18.199219-11.226563-4.441407-23.667969-6.691407-36.976563-6.691407-5.226563 0-10.28125 2.144532-20.042969 8.5-6.007812 3.917969-13.035156 8.449219-20.878906 13.460938-6.707031 4.273438-15.792969 8.277344-27.015625 11.902344-10.949219 3.542968-22.066406 5.339844-33.039063 5.339844-10.972656 0-22.085937-1.796876-33.046874-5.339844-11.210938-3.621094-20.296876-7.625-26.996094-11.898438-7.769532-4.964844-14.800782-9.496094-20.898438-13.46875-9.75-6.355468-14.808594-8.5-20.035156-8.5-13.3125 0-25.75 2.253906-36.972656 6.699219-11.257813 4.457031-21.003906 10.578125-28.96875 18.199219-7.605469 7.28125-14.390625 16.121094-20.15625 26.273437-5.558594 9.785157-10.058594 19.992188-13.371094 30.339844-3.199219 10.003906-5.875 20.945313-7.953125 32.523437-2.058594 11.476563-3.457031 22.363282-4.148437 32.363282-.679688 9.796875-1.023438 19.964844-1.023438 30.234375 0 26.726562 8.496094 48.363281 25.25 64.320312 16.546875 15.746094 38.441406 23.734375 65.066406 23.734375h246.53125c26.625 0 48.511719-7.984375 65.0625-23.734375 16.757813-15.945312 25.253906-37.585937 25.253906-64.324219-.003906-10.316406-.351562-20.492187-1.035156-30.242187zm0 0"/></symbol><symbol id="working-at-home" viewBox="0 0 512.006 512.006"><title>working-at-home</title><g><path d="m360.801 213.483 12.911-77.461h20.004l23.994 120h30.591l-27.589-137.944c-1.406-7.002-7.559-12.056-14.707-12.056h-27.295l12.09-72.539c1.362-8.174-4.16-15.894-12.334-17.256-8.145-1.509-15.894 4.146-17.256 12.334l-30 180c-1.621 9.727 4.953 15.926 12.344 17.209 7.392 1.283 15.6-2.35 17.247-12.287z"/><path d="m256.006 496.022h30c8.284 0 15-6.716 15-15v-135c0-33.138-26.863-60-60-60h-121c-10.977 0-21.14-3.177-30-8.344v38.344c0 16.567 13.431 30 30 30h121v135c0 8.284 6.716 15 15 15z"/><path d="m120.006 436.022v30h-15c-8.291 0-15 6.709-15 15s6.709 15 15 15h60c8.291 0 15-6.709 15-15s-6.709-15-15-15h-15v-30h31c16.569 0 30-13.433 30-30 0-16.569-13.431-30-30-30h-121v-45c0-151.802-30.293-214.131-31.582-216.709-3.721-7.397-12.7-10.371-20.127-6.709-7.412 3.706-10.415 12.715-6.709 20.127.292.571 28.418 58.506 28.418 203.291 0 5.235 0 63.704 0 60 0 24.853 20.147 45 45 45z"/><path d="m497.006 286.022c-6.442 0-196.41 0-189.408 0 7.817 8.668 13.885 18.792 17.88 30h95.528v165c0 8.291 6.709 15 15 15s15-6.709 15-15v-165h46c8.291 0 15-6.709 15-15s-6.709-15-15-15z"/></g><circle cx="121.006" cy="76.022" r="45"/><path d="m91.006 151.022v75c0 16.567 13.431 30 30 30h105c8.284 0 15-6.716 15-15 0-24.853-20.147-45-45-45h-45v-45c0-16.569-13.431-30-30-30s-30 13.431-30 30z"/></symbol><symbol id="global" viewBox="0 0 476.16 476.16"><title>global</title><g> <g> <path d="M260.113,0.256c27.11,39.264,48.236,82.339,62.686,127.812c33.065-5.187,64.911-16.343,93.986-32.922l8.533-5.291 C384.841,38.629,325.127,6.243,260.113,0.256z"/> </g> </g><g> <g> <path d="M297.813,166.4c-19.83,2.271-39.774,3.411-59.733,3.413c-19.96-0.003-39.903-1.142-59.733-3.413 c-4.213,17.945-6.896,36.215-8.021,54.613h135.509C304.71,202.615,302.026,184.345,297.813,166.4z"/> </g> </g><g> <g> <path d="M238.08,340.48c-16.816,0.015-33.62,0.886-50.347,2.611c12.305,36.743,29.223,71.776,50.347,104.26 c21.124-32.484,38.041-67.518,50.347-104.26C271.7,341.366,254.896,340.495,238.08,340.48z"/> </g> </g><g> <g> <path d="M339.831,255.147c-1.04,20.137-3.763,40.153-8.141,59.836c36.337,6.036,71.283,18.595,103.151,37.069l9.643,6.007 c18.303-31.424,29.141-66.634,31.676-102.912H339.831z"/> </g> </g><g> <g> <path d="M444.484,118.118l-9.643,6.008c-31.862,18.504-66.808,31.091-103.151,37.154c4.372,19.65,7.095,39.63,8.141,59.733H476.16 C473.622,184.741,462.785,149.538,444.484,118.118z"/> </g> </g><g> <g> <path d="M170.325,255.147c1.135,18.4,3.83,36.67,8.055,54.613c39.693-4.534,79.773-4.534,119.467,0 c4.202-17.946,6.874-36.216,7.987-54.613H170.325z"/> </g> </g><g> <g> <path d="M41.318,124.126l-9.643-6.008C13.375,149.538,2.538,184.741,0,221.013h136.329c1.046-20.103,3.769-40.084,8.141-59.733 C108.127,155.217,73.18,142.63,41.318,124.126z"/> </g> </g><g> <g> <path d="M153.361,348.109c-33.062,5.189-64.907,16.338-93.986,32.905l-8.533,5.308c40.474,51.228,100.192,83.61,165.205,89.583 C188.933,436.648,167.807,393.579,153.361,348.109z"/> </g> </g><g> <g> <path d="M238.08,28.826c-21.121,32.48-38.038,67.507-50.347,104.243c16.726,1.734,33.531,2.605,50.347,2.611 c16.816-0.006,33.62-0.878,50.347-2.611C276.118,96.333,259.201,61.306,238.08,28.826z"/> </g> </g><g> <g> <path d="M416.785,381.013c-29.079-16.566-60.924-27.715-93.986-32.905c-14.461,45.473-35.605,88.542-62.737,127.795 c65.014-5.973,124.731-38.355,165.205-89.583L416.785,381.013z"/> </g> </g><g> <g> <path d="M50.893,89.856l8.482,5.291c29.075,16.579,60.921,27.734,93.986,32.922c14.465-45.477,35.609-88.551,62.737-127.812 C151.085,6.243,91.371,38.629,50.893,89.856z"/> </g> </g><g> <g> <path d="M136.329,255.147H0c2.535,36.278,13.372,71.488,31.676,102.912l9.643-6.007c31.868-18.474,66.814-31.032,103.151-37.069 C140.091,295.299,137.368,275.284,136.329,255.147z"/> </g> </g></symbol><symbol id="search" viewBox="0 0 495.639 495.639"><title>search</title><path d="m111.383 311.449 25.71 25.71 43.907-44.335c-42.189-50.288-51.165-116.721-31.554-172.972l58.424 58.423c-.498 58.74 47.326 110.077 109.726 110.077 36.632-.001 69.123-18.047 89.064-45.712l-66.332-66.333-45.998 46.001-171.066-171.066v38.788h-30l.001-90h89.999v29.999l-38.787.001 149.853 149.853 45.998-46.002 80.878 80.877c13.264-37.921 5.193-82.514-26.018-113.726-39.988-39.986-102.799-42.548-145.7-8.454l-48.503-48.504c69.869-60.736 175.883-57.972 242.507 8.652 33.627 33.627 52.146 78.338 52.146 125.895 0 98.174-79.869 178.046-178.043 178.047-42.804 0-83.297-15.01-115.482-42.528l-43.808 44.233 25.814 25.815-111.38 111.383-72.739-72.739z"/><path d="m255.12 405.609h239.999v30h-239.999z"/><path d="m165.119 465.609h180v29.999h-180z"/></symbol><symbol id="server" viewBox="0 0 371.005 371.005"><title>server</title><g> <g> <path d="M281.016,14.241C255.627,5.058,221.703,0,185.503,0S115.379,5.061,89.99,14.248c-22.174,8.026-35.412,18.5-35.412,28.029 c0,9.529,13.238,20.001,35.413,28.023h0c25.388,9.188,59.309,14.249,95.512,14.249s70.124-5.061,95.513-14.249 c22.174-8.026,35.412-18.5,35.412-28.03C316.428,32.74,303.19,22.27,281.016,14.241z"/> </g> </g><g> <g> <path d="M185.503,291.078c-51.314,0-105-10.602-131-30.684v68.332c0,9.532,13.283,20.012,35.454,28.035 c25.382,9.184,59.351,14.242,95.565,14.242c21.305,0.079,42.571-1.825,63.523-5.686c39.697-7.617,67.458-22.663,67.458-36.591 v-68.332C290.503,280.476,236.817,291.078,185.503,291.078z M208.503,337.5h-46c-4.418,0-8-3.582-8-8s3.582-8,8-8h46 c4.418,0,8,3.582,8,8S212.921,337.5,208.503,337.5z"/> </g> </g><g> <g> <path d="M185.503,195.814c-51.314,0-105-10.601-131-30.683V232.8c0,9.532,13.283,20.012,35.454,28.035 c25.382,9.185,59.351,14.242,95.565,14.242s70.154-5.057,95.536-14.242c22.171-8.022,35.445-18.502,35.445-28.035v-67.67 C290.503,185.212,236.817,195.814,185.503,195.814z M208.503,240.5h-46c-4.418,0-8-3.582-8-8s3.582-8,8-8h46c4.418,0,8,3.582,8,8 S212.921,240.5,208.503,240.5z"/> </g> </g><g> <g> <path d="M185.503,100.553c-51.314,0-105-10.603-131-30.685v67.67c0,9.532,13.283,20.013,35.454,28.035 c25.382,9.185,59.351,14.242,95.565,14.242s70.154-5.057,95.536-14.242c22.171-8.022,35.445-18.503,35.445-28.035v-67.67 C290.503,89.95,236.817,100.553,185.503,100.553z M208.503,146.5h-46c-4.418,0-8-3.582-8-8s3.582-8,8-8h46c4.418,0,8,3.582,8,8 S212.921,146.5,208.503,146.5z"/> </g> </g></symbol><symbol id="smartphone" viewBox="0 0 503.604 503.604"><title>smartphone</title><path d="M337.324,0H167.192c-28.924,0-53.5,23.584-53.5,52.5v398.664c0,28.916,24.056,52.44,52.98,52.44l170.412-0.184 c28.92,0,52.58-23.528,52.58-52.448l0.248-398.5C389.908,23.452,366.364,0,337.324,0z M227.68,31.476h49.36 c4.336,0,7.868,3.52,7.868,7.868c0,4.348-3.532,7.868-7.868,7.868h-49.36c-4.348,0-7.868-3.52-7.868-7.868 C219.812,34.996,223.332,31.476,227.68,31.476z M198.02,33.98c2.916-2.912,8.224-2.952,11.136,0c1.46,1.456,2.324,3.5,2.324,5.588 c0,2.048-0.864,4.088-2.324,5.548c-1.452,1.46-3.504,2.32-5.548,2.32c-2.084,0-4.088-0.86-5.588-2.32 c-1.452-1.456-2.28-3.5-2.28-5.548C195.736,37.48,196.568,35.436,198.02,33.98z M250.772,488.008 c-12.984,0-23.544-10.568-23.544-23.548c0-12.984,10.56-23.548,23.544-23.548s23.544,10.564,23.544,23.548 C274.316,477.44,263.752,488.008,250.772,488.008z M365.488,424.908H141.232V74.756h224.256V424.908z"/></symbol><symbol id="customer" viewBox="0 0 512 512"><title>customer</title><circle cx="256" cy="119.631" r="87"/><circle cx="432" cy="151.63" r="55"/><circle cx="80" cy="151.63" r="55"/><path d="m134.19 256.021c-21.65-17.738-41.257-15.39-66.29-15.39-37.44 0-67.9 30.28-67.9 67.49v109.21c0 16.16 13.19 29.3 29.41 29.3 70.026 0 61.59 1.267 61.59-3.02 0-77.386-9.166-134.137 43.19-187.59z"/><path d="m279.81 241.03c-43.724-3.647-81.729.042-114.51 27.1-54.857 43.94-44.3 103.103-44.3 175.48 0 19.149 15.58 35.02 35.02 35.02 211.082 0 219.483 6.809 232-20.91 4.105-9.374 2.98-6.395 2.98-96.07 0-71.226-61.673-120.62-111.19-120.62z"/><path d="m444.1 240.63c-25.17 0-44.669-2.324-66.29 15.39 51.965 53.056 43.19 105.935 43.19 187.59 0 4.314-7.003 3.02 60.54 3.02 16.8 0 30.46-13.61 30.46-30.34v-108.17c0-37.21-30.46-67.49-67.9-67.49z"/></symbol><symbol id="customer-1" viewBox="0 0 512.001 512.001"><title>customer-1</title><g> <g> <path d="M271.029,0c-33.091,0-61,27.909-61,61s27.909,61,61,61s60-27.909,60-61S304.12,0,271.029,0z"/> </g> </g><g> <g> <path d="M337.621,122c-16.485,18.279-40.096,30-66.592,30c-26.496,0-51.107-11.721-67.592-30 c-14.392,15.959-23.408,36.866-23.408,60v15c0,8.291,6.709,15,15,15h151c8.291,0,15-6.709,15-15v-15 C361.029,158.866,352.013,137.959,337.621,122z"/> </g> </g><g> <g> <path d="M144.946,460.404L68.505,307.149c-7.381-14.799-25.345-20.834-40.162-13.493l-19.979,9.897 c-7.439,3.689-10.466,12.73-6.753,20.156l90,180c3.701,7.423,12.704,10.377,20.083,6.738l19.722-9.771 C146.291,493.308,152.354,475.259,144.946,460.404z"/> </g> </g><g> <g> <path d="M499.73,247.7c-12.301-9-29.401-7.2-39.6,3.9l-82,100.8c-5.7,6-16.5,9.6-22.2,9.6h-69.901c-8.401,0-15-6.599-15-15 s6.599-15,15-15c20.09,0,42.332,0,60,0c16.5,0,30-13.5,30-30s-13.5-30-30-30c-70.446,0-3.25,0-78.6,0 c-7.476,0-11.204-4.741-17.1-9.901c-23.209-20.885-57.949-30.947-93.119-22.795c-19.528,4.526-32.697,12.415-46.053,22.993 l-0.445-0.361L89.016,281.03L174.28,452h25.248h146.501c28.2,0,55.201-13.5,72.001-36l87.999-126 C515.929,276.799,513.229,257.601,499.73,247.7z"/> </g> </g></symbol><symbol id="monitor" viewBox="0 0 512 512"><title>monitor</title><g> <g> <path d="M467,28.355H45c-24.813,0-45,20.187-45,45v278.273c0,24.813,20.187,45,45,45h151.494v57.016h-22.587 c-8.284,0-15,6.716-15,15s6.716,15,15,15h164.187c8.284,0,15-6.716,15-15s-6.716-15-15-15h-22.587v-57.016H467 c24.813,0,45-20.187,45-45V73.355C512,48.542,491.813,28.355,467,28.355z M285.506,453.645h-59.012v-57.016h59.012V453.645z M482,351.629c0,8.271-6.729,15-15,15H45c-8.271,0-15-6.729-15-15v-22.803h452V351.629z M482,298.826H30V73.355 c0-8.271,6.729-15,15-15h422c8.271,0,15,6.729,15,15V298.826z"/> </g> </g><g> <g> <path d="M182.275,216.892l-40.633-27.741l40.633-27.741c6.842-4.671,8.602-14.004,3.931-20.846 c-4.67-6.841-14.004-8.601-20.846-3.931l-58.779,40.129c-4.094,2.795-6.542,7.432-6.542,12.388s2.448,9.595,6.542,12.39 l58.779,40.129c2.587,1.767,5.531,2.613,8.444,2.613c4.79,0,9.498-2.29,12.402-6.544 C190.877,230.896,189.117,221.563,182.275,216.892z"/> </g> </g><g> <g> <path d="M405.419,176.764l-58.779-40.129c-6.841-4.67-16.174-2.91-20.846,3.931c-4.671,6.842-2.911,16.175,3.931,20.846 l40.633,27.741l-40.633,27.739c-6.842,4.671-8.602,14.004-3.931,20.846c2.905,4.255,7.611,6.544,12.402,6.544 c2.913,0,5.857-0.847,8.444-2.613l58.779-40.129c4.094-2.795,6.542-7.432,6.542-12.388S409.512,179.56,405.419,176.764z"/> </g> </g><g> <g> <path d="M293.458,122.516c-7.22-4.059-16.366-1.497-20.426,5.726l-60.218,107.123c-4.058,7.22-1.495,16.365,5.727,20.425 c2.324,1.307,4.847,1.927,7.336,1.927c5.244,0,10.336-2.755,13.089-7.652l60.218-107.123 C303.244,135.721,300.68,126.576,293.458,122.516z"/> </g> </g></symbol><symbol id="diamond" viewBox="0 0 24 24"><title>diamond</title><g><path d="m3.7 1.762 2.392 6.675h-6.092z"/></g><g><path d="m11.06 1.823-3.762 5.444-2.228-6.207h5.468z"/></g><g><path d="m15.649 8.437h-7.298l3.649-5.261z"/></g><g><path d="m18.93 1.06-2.218 6.207-3.772-5.444.522-.763z"/></g><g><path d="m24 8.437h-6.082l2.392-6.675z"/></g><g><path d="m11.315 23.06-.184-.224-10.906-12.872h6.409l4.548 12.719z"/></g><g><path d="m15.741 9.964-3.741 10.45-3.741-10.45z"/></g><g><path d="m23.775 9.964-10.906 12.872-.184.214.122-.356 4.559-12.73z"/></g></symbol><symbol id="call" viewBox="0 0 384 384"><title>call</title><path d="M362.667,266.667c-26.56,0-52.267-4.267-76.16-12.16c-7.36-2.347-15.787-0.64-21.653,5.227l-46.933,47.04 c-60.48-30.72-109.867-80.107-140.587-140.48l46.933-47.147c5.867-5.867,7.573-14.293,5.227-21.653 c-7.893-23.893-12.16-49.6-12.16-76.16C117.333,9.493,107.84,0,96,0H21.333C9.6,0,0,9.493,0,21.333 C0,221.653,162.347,384,362.667,384c11.84,0,21.333-9.493,21.333-21.333V288C384,276.16,374.507,266.667,362.667,266.667z"/></symbol><symbol id="pin" viewBox="0 0 512 512"><title>pin</title><path d="M256,0C161.896,0,85.333,76.563,85.333,170.667c0,28.25,7.063,56.26,20.49,81.104L246.667,506.5 c1.875,3.396,5.448,5.5,9.333,5.5s7.458-2.104,9.333-5.5l140.896-254.813c13.375-24.76,20.438-52.771,20.438-81.021 C426.667,76.563,350.104,0,256,0z M256,256c-47.052,0-85.333-38.281-85.333-85.333c0-47.052,38.281-85.333,85.333-85.333 s85.333,38.281,85.333,85.333C341.333,217.719,303.052,256,256,256z"/></symbol><symbol id="twitter" viewBox="0 0 24 24"><title>twitter</title><path d="m21.534 7.113c.976-.693 1.797-1.558 2.466-2.554v-.001c-.893.391-1.843.651-2.835.777 1.02-.609 1.799-1.566 2.165-2.719-.951.567-2.001.967-3.12 1.191-.903-.962-2.19-1.557-3.594-1.557-2.724 0-4.917 2.211-4.917 4.921 0 .39.033.765.114 1.122-4.09-.2-7.71-2.16-10.142-5.147-.424.737-.674 1.58-.674 2.487 0 1.704.877 3.214 2.186 4.089-.791-.015-1.566-.245-2.223-.606v.054c0 2.391 1.705 4.377 3.942 4.835-.401.11-.837.162-1.29.162-.315 0-.633-.018-.931-.084.637 1.948 2.447 3.381 4.597 3.428-1.674 1.309-3.8 2.098-6.101 2.098-.403 0-.79-.018-1.177-.067 2.18 1.405 4.762 2.208 7.548 2.208 8.683 0 14.342-7.244 13.986-14.637z"/></symbol><symbol id="instagram" viewBox="0 0 24 24"><title>instagram</title><path d="m12.004 5.838c-3.403 0-6.158 2.758-6.158 6.158 0 3.403 2.758 6.158 6.158 6.158 3.403 0 6.158-2.758 6.158-6.158 0-3.403-2.758-6.158-6.158-6.158zm0 10.155c-2.209 0-3.997-1.789-3.997-3.997s1.789-3.997 3.997-3.997 3.997 1.789 3.997 3.997c.001 2.208-1.788 3.997-3.997 3.997z"/><path d="m16.948.076c-2.208-.103-7.677-.098-9.887 0-1.942.091-3.655.56-5.036 1.941-2.308 2.308-2.013 5.418-2.013 9.979 0 4.668-.26 7.706 2.013 9.979 2.317 2.316 5.472 2.013 9.979 2.013 4.624 0 6.22.003 7.855-.63 2.223-.863 3.901-2.85 4.065-6.419.104-2.209.098-7.677 0-9.887-.198-4.213-2.459-6.768-6.976-6.976zm3.495 20.372c-1.513 1.513-3.612 1.378-8.468 1.378-5 0-7.005.074-8.468-1.393-1.685-1.677-1.38-4.37-1.38-8.453 0-5.525-.567-9.504 4.978-9.788 1.274-.045 1.649-.06 4.856-.06l.045.03c5.329 0 9.51-.558 9.761 4.986.057 1.265.07 1.645.07 4.847-.001 4.942.093 6.959-1.394 8.453z"/><circle cx="18.406" cy="5.595" r="1.439"/></symbol><symbol id="linkedin" viewBox="-21 -35 682.66669 682"><title>linkedin</title><path d="m77.613281-.667969c-46.929687 0-77.613281 30.816407-77.613281 71.320313 0 39.609375 29.769531 71.304687 75.8125 71.304687h.890625c47.847656 0 77.625-31.695312 77.625-71.304687-.894531-40.503906-29.777344-71.320313-76.714844-71.320313zm0 0"/><path d="m8.109375 198.3125h137.195313v412.757812h-137.195313zm0 0"/><path d="m482.054688 188.625c-74.011719 0-123.640626 69.546875-123.640626 69.546875v-59.859375h-137.199218v412.757812h137.191406v-230.5c0-12.339843.894531-24.660156 4.519531-33.484374 9.917969-24.640626 32.488281-50.167969 70.390625-50.167969 49.644532 0 69.5 37.851562 69.5 93.339843v220.8125h137.183594v-236.667968c0-126.78125-67.6875-185.777344-157.945312-185.777344zm0 0"/></symbol><symbol id="facebook" viewBox="0 0 24 24"><title>facebook</title><path d="m15.997 3.985h2.191v-3.816c-.378-.052-1.678-.169-3.192-.169-3.159 0-5.323 1.987-5.323 5.639v3.361h-3.486v4.266h3.486v10.734h4.274v-10.733h3.345l.531-4.266h-3.877v-2.939c.001-1.233.333-2.077 2.051-2.077z"/></symbol><symbol id="google-plus" viewBox="0 0 24 24"><title>google-plus</title><path d="m21.823 9h-2.187v2.177h-2.177v2.187h2.177v2.177h2.187v-2.177h2.177v-2.187h-2.177z"/><path d="m7.5 19.5c4.328 0 7.203-3.038 7.203-7.326 0-.491-.051-.87-.122-1.248h-7.08v2.578h4.257c-.174 1.095-1.289 3.233-4.257 3.233-2.557 0-4.645-2.118-4.645-4.737s2.087-4.738 4.645-4.738c1.463 0 2.435.624 2.988 1.156l2.036-1.954c-1.311-1.227-2.999-1.964-5.025-1.964-4.144 0-7.5 3.356-7.5 7.5s3.356 7.5 7.5 7.5z"/></symbol><symbol id="mail" viewBox="0 0 512 512"><title>mail</title><g> <g> <path d="M507.49,101.721L352.211,256L507.49,410.279c2.807-5.867,4.51-12.353,4.51-19.279V121 C512,114.073,510.297,107.588,507.49,101.721z"/> </g> </g><g> <g> <path d="M467,76H45c-6.927,0-13.412,1.703-19.279,4.51l198.463,197.463c17.548,17.548,46.084,17.548,63.632,0L486.279,80.51 C480.412,77.703,473.927,76,467,76z"/> </g> </g><g> <g> <path d="M4.51,101.721C1.703,107.588,0,114.073,0,121v270c0,6.927,1.703,13.413,4.51,19.279L159.789,256L4.51,101.721z"/> </g> </g><g> <g> <path d="M331,277.211l-21.973,21.973c-29.239,29.239-76.816,29.239-106.055,0L181,277.211L25.721,431.49 C31.588,434.297,38.073,436,45,436h422c6.927,0,13.412-1.703,19.279-4.51L331,277.211z"/> </g> </g></symbol><symbol id="star" viewBox="0 0 19.481 19.481"><title>star</title><path d="m10.201,.758l2.478,5.865 6.344,.545c0.44,0.038 0.619,0.587 0.285,0.876l-4.812,4.169 1.442,6.202c0.1,0.431-0.367,0.77-0.745,0.541l-5.452-3.288-5.452,3.288c-0.379,0.228-0.845-0.111-0.745-0.541l1.442-6.202-4.813-4.17c-0.334-0.289-0.156-0.838 0.285-0.876l6.344-.545 2.478-5.864c0.172-0.408 0.749-0.408 0.921,0z"/></symbol></svg>